{"title":"Rugby.Union.Aviva.Premiership.Highlights.R16.2013.02.24.pdtv.x26","uid":8194865,"size":438638360,"categoryP":"video","categoryS":"tv_shows","magnet":"?xt=urn:btih:15eea5f4e6a0246e6363d3869e7fee92c20e2040&amp;dn=Rugby.Union.Aviva.Premiership.Highlights.R16.2013.02.24.pdtv.x26&amp;tr=udp%3A%2F%2Ftracker.openbittorrent.com%3A80&amp;tr=udp%3A%2F%2Fopen.demonii.com%3A1337&amp;tr=udp%3A%2F%2Ftracker.coppersurfer.tk%3A6969&amp;tr=udp%3A%2F%2Fexodus.desync.com%3A6969","seeders":1,"leechers":0,"uploader":"rugbybill","files":4,"time":1361895678,"description":"SPORT: Rugby Highlights - Aviva Premiership\nOn: itv1 hd\nDate: Sunday 24th February 2013 \nTime: 23:15 to 00:15 \n\nCraig Doyle and Martin Bayfield present the highlights from the weekend's round 16 games, including Sale taking on Harlequins and Leicester's home match with Saracens.\n\n\nGeneral\nComplete name                            : 2013.02.24.Rugby.Union.Aviva.Highlights.pdtv.x264.mp4\nFormat                                   : MPEG-4\nFormat profile                           : Base Media\nCodec ID                                 : isom\nFile size                                : 418 MiB\nDuration                                 : 45mn 20s\nOverall bit rate mode                    : Variable\nOverall bit rate                         : 1 288 Kbps\n\nVideo\nID                                       : 1\nFormat                                   : AVC\nFormat/Info                              : Advanced Video Codec\nFormat profile                           : &lt;a class=&quot;__cf_email__&quot; href=&quot;/cdn-cgi/l/email-protection&quot; data-cfemail=&quot;4901202e2109057a6778&quot;&gt;[email&amp;#160;protected]&lt;/a&gt;&lt;script cf-hash='f9e31' type=&quot;text/javascript&quot;&gt;\n/* &lt;![CDATA[ */!function(){try{var t=&quot;currentScript&quot;in document?document.currentScript:function(){for(var t=document.getElementsByTagName(&quot;script&quot;),e=t.length;e--;)if(t[e].getAttribute(&quot;cf-hash&quot;))return t[e]}();if(t&amp;&amp;t.previousSibling){var e,r,n,i,c=t.previousSibling,a=c.getAttribute(&quot;data-cfemail&quot;);if(a){for(e=&quot;&quot;,r=parseInt(a.substr(0,2),16),n=2;a.length-n;n+=2)i=parseInt(a.substr(n,2),16)^r,e+=String.fromCharCode(i);e=document.createTextNode(e),c.parentNode.replaceChild(e,c)}}}catch(u){}}();/* ]]&gt; */&lt;/script&gt;\nFormat settings, CABAC                   : Yes\nFormat settings, ReFrames                : 15 frames\nCodec ID                                 : avc1\nCodec ID/Info                            : Advanced Video Coding\nDuration                                 : 45mn 20s\nBit rate                                 : 1 160 Kbps\nMaximum bit rate                         : 3 835 Kbps\nWidth                                    : 720 pixels\nHeight                                   : 416 pixels\nDisplay aspect ratio                     : 1.731\nFrame rate mode                          : Constant\nFrame rate                               : 25.000 fps\nColor space                              : YUV\nChroma subsampling                       : 4:2:0\nBit depth                                : 8 bits\nScan type                                : Progressive\nBits/(Pixel*Frame)                       : 0.155\nStream size                              : 376 MiB (90%)\nWriting library                          : x264 core 129 r2245 bc13772\n\nAudio\nID                                       : 2\nFormat                                   : AAC\nFormat/Info                              : Advanced Audio Codec\nFormat profile                           : LC\nCodec ID                                 : 40\nDuration                                 : 45mn 20s\nBit rate mode                            : Variable\nBit rate                                 : 124 Kbps\nMaximum bit rate                         : 129 Kbps\nChannel(s)                               : 2 channels\nChannel positions                        : Front: L R\nSampling rate                            : 48.0 KHz\nCompression mode                         : Lossy\nDelay relative to video                  : 80ms\nStream size                              : 40.2 MiB (10%)\nLanguage                                 : English","torrent":{"xt":"urn:btih:15eea5f4e6a0246e6363d3869e7fee92c20e2040","amp;dn":"Rugby.Union.Aviva.Premiership.Highlights.R16.2013.02.24.pdtv.x26","amp;tr":["udp%3A%2F%2Ftracker.openbittorrent.com%3A80","udp%3A%2F%2Fopen.demonii.com%3A1337","udp%3A%2F%2Ftracker.coppersurfer.tk%3A6969","udp%3A%2F%2Fexodus.desync.com%3A6969"],"infoHash":"15eea5f4e6a0246e6363d3869e7fee92c20e2040","infoHashBuffer":{"type":"Buffer","data":[21,238,165,244,230,160,36,110,99,99,211,134,158,127,238,146,194,14,32,64]},"announce":[],"urlList":[]}}